<svg height="512pt" viewBox="-59 0 511 512" width="512pt" xmlns="http://www.w3.org/2000/svg"><path d="m386.136719 430.289062-115.097657-207.175781v-193.113281h15c8.28125 0 15-6.714844 15-15s-6.71875-15-15-15h-180c-8.285156 0-15 6.714844-15 15s6.714844 15 15 15h15v193.15625l-113.691406 207.40625c-20.078125 36.632812 6.394532 81.4375 48.230469 81.4375h282.480469c41.914062 0 68.460937-45.019531 48.078125-81.710938zm-48.082031 51.710938h-282.476563c-18.988281 0-31.0625-20.34375-21.921875-37.015625 124.894531-227.847656 117.382812-212.476563 117.382812-217.984375v-197h90v32h-15c-8.285156 0-15 6.714844-15 15s6.714844 15 15 15h15v30h-45c-8.285156 0-15 6.714844-15 15s6.714844 15 15 15h45v30h-15c-8.285156 0-15 6.714844-15 15s6.714844 15 15 15h15v15c0 5.574219-7.574218-9.742188 118.871094 217.859375 9.253906 16.652344-2.773437 37.140625-21.855468 37.140625zm0 0"/></svg>