<svg id="Layer_1" enable-background="new 0 0 512 512" height="512" viewBox="0 0 512 512" width="512" xmlns="http://www.w3.org/2000/svg"><g><circle cx="134.74" cy="326.01" r="10"/><circle cx="116" cy="256" r="10"/><circle cx="134.74" cy="185.99" r="10"/><circle cx="185.99" cy="134.74" r="10"/><circle cx="256" cy="116" r="10"/><circle cx="326.01" cy="134.74" r="10"/><circle cx="377.26" cy="185.99" r="10"/><circle cx="396" cy="256" r="10"/><circle cx="377.26" cy="326.01" r="10"/><path d="m507.31 207.12c-3.14-16.22-7.87-32.18-14.06-47.45-6.3-15.55-14.19-30.53-23.43-44.54-9.49-14.37-20.52-27.87-32.8-40.15-12.27-12.27-25.78-23.31-40.14-32.79-14-9.24-28.98-17.13-44.53-23.43-15.26-6.2-31.22-10.93-47.43-14.07-16.06-3.11-32.5-4.69-48.87-4.69h-.1c-16.37 0-32.81 1.58-48.87 4.69-16.21 3.14-32.17 7.88-47.43 14.07-15.55 6.3-30.53 14.19-44.53 23.43-14.36 9.49-27.87 20.52-40.14 32.79-12.28 12.28-23.31 25.78-32.8 40.15-9.24 14.01-17.13 28.99-23.43 44.54-6.19 15.27-10.93 31.23-14.07 47.45-3.11 16.06-4.68 32.51-4.68 48.88s1.57 32.82 4.68 48.88c3.14 16.22 7.88 32.18 14.07 47.45 6.3 15.55 14.19 30.53 23.43 44.54 9.49 14.36 20.52 27.87 32.8 40.15 12.27 12.27 25.78 23.31 40.14 32.79 14 9.24 28.98 17.13 44.53 23.43 15.26 6.2 31.22 10.93 47.43 14.07 16.06 3.11 32.51 4.69 48.88 4.69h.09c16.37 0 32.81-1.58 48.87-4.69 16.21-3.14 32.17-7.88 47.43-14.07 15.55-6.3 30.53-14.19 44.53-23.43 14.36-9.48 27.87-20.52 40.14-32.79 17.15-17.15 31.73-36.53 43.33-57.59 2.66-4.83.89-10.93-3.93-13.58-1.48-.82-3.15-1.25-4.82-1.25-3.64 0-7 1.98-8.76 5.17l-.01.01c-10.69 19.41-24.13 37.27-39.95 53.1-44.57 44.56-103.84 69.11-166.88 69.12-63.04-.01-122.31-24.56-166.88-69.12-44.56-44.57-69.11-103.84-69.12-166.88.01-63.04 24.56-122.31 69.12-166.88 44.57-44.56 103.84-69.11 166.88-69.12 63.04.01 122.31 24.56 166.88 69.12 44.56 44.57 69.11 103.83 69.12 166.88 0 10.77-.74 21.63-2.21 32.29-.75 5.46 3.09 10.52 8.55 11.27.45.06.92.1 1.37.1 4.97-.01 9.22-3.72 9.9-8.65 1.58-11.55 2.39-23.33 2.39-35.01 0-16.37-1.57-32.82-4.69-48.88z"/><circle cx="489.548" cy="333.43" r="10"/><path d="m404.548 411.435c20.767-19.855 37.104-43.214 48.558-69.429 11.86-27.145 17.88-56.046 17.895-85.903.027-57.612-22.226-111.65-62.659-152.16-40.435-40.51-94.431-62.864-152.042-62.943-.102 0-.201 0-.302 0-57.375 0-111.32 22.32-151.922 62.867-40.675 40.62-63.076 94.648-63.076 152.133 0 29.891 6.02 58.825 17.892 85.999 11.465 26.243 27.822 49.623 48.618 69.491 5.739 5.483 13.236 8.295 20.759 8.294 5.895 0 11.806-1.728 16.894-5.249 32.645-22.593 70.972-34.535 110.837-34.535s78.192 11.942 110.838 34.535c11.585 8.019 27.445 6.714 37.71-3.1zm-270.768-13.345c-3.811 2.638-9.049 2.192-12.455-1.061-38.901-37.167-60.325-87.252-60.325-141.029 0-52.137 20.317-101.14 57.208-137.981 36.828-36.778 85.749-57.019 137.791-57.019h.274c107.423.147 194.777 87.666 194.727 195.093-.025 53.714-21.431 103.749-60.273 140.886-3.434 3.284-8.694 3.75-12.507 1.111-36.007-24.919-78.269-38.09-122.22-38.09s-86.213 13.171-122.22 38.09z"/><path d="m118.152 282.581-24.15 6.47c-5.334 1.429-8.5 6.912-7.071 12.247 1.197 4.468 5.237 7.415 9.653 7.415.856 0 26.745-6.813 26.745-6.813 5.334-1.429 8.5-6.912 7.071-12.247-1.429-5.336-6.914-8.504-12.248-7.072z"/><path d="m381.601 222.348c1.197 4.468 5.237 7.415 9.653 7.415.856 0 26.745-6.813 26.745-6.813 5.334-1.429 8.5-6.912 7.071-12.247s-6.912-8.503-12.247-7.071l-24.15 6.47c-5.336 1.427-8.502 6.911-7.072 12.246z"/><path d="m229.419 118.152-6.47-24.15c-1.429-5.334-6.913-8.502-12.247-7.071-5.334 1.429-8.5 6.912-7.071 12.247l6.47 24.15c1.197 4.468 5.237 7.415 9.653 7.415.856 0 1.728-.111 2.594-.343 5.334-1.429 8.5-6.913 7.071-12.248z"/><path d="m289.652 130.399c.867.232 1.738.343 2.594.343 4.416 0 8.456-2.947 9.653-7.415l6.47-24.15c1.429-5.335-1.737-10.818-7.071-12.247-5.34-1.431-10.818 1.737-12.247 7.071l-6.47 24.15c-1.429 5.336 1.737 10.82 7.071 12.248z"/><path d="m417.998 289.051-24.15-6.47c-5.339-1.432-10.818 1.737-12.247 7.071-1.429 5.335 1.737 10.818 7.071 12.247 0 0 25.888 6.813 26.745 6.813 4.416 0 8.456-2.947 9.653-7.415 1.429-5.334-1.737-10.818-7.072-12.246z"/><path d="m123.328 210.101-24.15-6.47c-5.34-1.432-10.818 1.737-12.247 7.071-1.429 5.335 1.737 10.818 7.071 12.247l24.15 6.47c.867.232 1.738.343 2.594.343 4.416 0 8.456-2.947 9.653-7.415 1.43-5.334-1.736-10.818-7.071-12.246z"/><path d="m146.401 132.259c-3.905-3.905-10.237-3.905-14.143 0-3.905 3.905-3.905 10.237 0 14.143l17.67 17.67c1.953 1.953 4.512 2.929 7.071 2.929s5.119-.976 7.071-2.929c3.905-3.905 3.905-10.237 0-14.143z"/><path d="m379.741 132.259c-3.905-3.905-10.237-3.905-14.143 0l-96.673 96.673c-11.149-5.31-24.921-3.363-34.139 5.855-11.697 11.697-11.697 30.729 0 42.427 5.849 5.848 13.531 8.772 21.213 8.772s15.365-2.924 21.213-8.772c9.218-9.218 11.166-22.99 5.855-34.139l96.673-96.673c3.906-3.906 3.906-10.238.001-14.143zm-123.741 133.741c-5.523 0-10-4.477-10-10s4.477-10 10-10 10 4.477 10 10-4.477 10-10 10z"/><path d="m216 421c-5.523 0-10 4.477-10 10s4.477 10 10 10h80c5.523 0 10-4.477 10-10s-4.477-10-10-10z"/></g></svg>